<?xml version="1.0" standalone="no"?>
<!DOCTYPE svg PUBLIC "-//W3C//DTD SVG 20010904//EN"
 "http://www.w3.org/TR/2001/REC-SVG-20010904/DTD/svg10.dtd">
<svg version="1.0" xmlns="http://www.w3.org/2000/svg"
 width="1024.000000pt" height="1024.000000pt" viewBox="0 0 1024.000000 1024.000000"
 preserveAspectRatio="xMidYMid meet">
<metadata>
Created by potrace 1.11, written by Peter Selinger 2001-2013
</metadata>
<g transform="translate(0.000000,1024.000000) scale(0.100000,-0.100000)"
fill="#000000" stroke="none">
<path d="M0 5120 l0 -5120 5120 0 5120 0 0 5120 0 5120 -5120 0 -5120 0 0
-5120z m5228 4273 c-64 -2 -172 -2 -240 0 -68 1 -15 3 117 3 132 0 187 -2 123
-3z m-425 -10 c-13 -2 -35 -2 -50 0 -16 2 -5 4 22 4 28 0 40 -2 28 -4z m690 0
c-13 -2 -35 -2 -50 0 -16 2 -5 4 22 4 28 0 40 -2 28 -4z m-800 -10 c-13 -2
-33 -2 -45 0 -13 2 -3 4 22 4 25 0 35 -2 23 -4z m900 0 c-13 -2 -35 -2 -50 0
-16 2 -5 4 22 4 28 0 40 -2 28 -4z m-1000 -10 c-13 -2 -33 -2 -45 0 -13 2 -3
4 22 4 25 0 35 -2 23 -4z m1100 0 c-13 -2 -33 -2 -45 0 -13 2 -3 4 22 4 25 0
35 -2 23 -4z m-1180 -10 c-7 -2 -21 -2 -30 0 -10 3 -4 5 12 5 17 0 24 -2 18
-5z m1250 0 c-7 -2 -21 -2 -30 0 -10 3 -4 5 12 5 17 0 24 -2 18 -5z m-1315
-10 c-10 -2 -26 -2 -35 0 -10 3 -2 5 17 5 19 0 27 -2 18 -5z m1385 0 c-7 -2
-21 -2 -30 0 -10 3 -4 5 12 5 17 0 24 -2 18 -5z m-1455 -10 c-10 -2 -26 -2
-35 0 -10 3 -2 5 17 5 19 0 27 -2 18 -5z m1520 0 c-10 -2 -26 -2 -35 0 -10 3
-2 5 17 5 19 0 27 -2 18 -5z m-1585 -10 c-7 -2 -21 -2 -30 0 -10 3 -4 5 12 5
17 0 24 -2 18 -5z m1650 0 c-7 -2 -21 -2 -30 0 -10 3 -4 5 12 5 17 0 24 -2 18
-5z m-1706 -9 c-3 -3 -12 -4 -19 -1 -8 3 -5 6 6 6 11 1 17 -2 13 -5z m1750 0
c-3 -3 -12 -4 -19 -1 -8 3 -5 6 6 6 11 1 17 -2 13 -5z m-1794 -11 c-7 -2 -19
-2 -25 0 -7 3 -2 5 12 5 14 0 19 -2 13 -5z m1840 0 c-7 -2 -19 -2 -25 0 -7 3
-2 5 12 5 14 0 19 -2 13 -5z m-1903 -13 c-14 -4 -34 -8 -45 -8 -16 0 -15 2 5
8 14 4 34 8 45 8 16 0 15 -2 -5 -8z m1947 4 c-3 -3 -12 -4 -19 -1 -8 3 -5 6 6
6 11 1 17 -2 13 -5z m46 -11 c-7 -2 -19 -2 -25 0 -7 3 -2 5 12 5 14 0 19 -2
13 -5z m-2083 -13 c-14 -4 -34 -8 -45 -8 -16 0 -15 2 5 8 14 4 34 8 45 8 16 0
15 -2 -5 -8z m2160 0 c20 -6 21 -8 5 -8 -11 0 -31 4 -45 8 -20 6 -21 8 -5 8
11 0 31 -4 45 -8z m-2260 -25 c-19 -7 -42 -13 -50 -13 -8 0 1 6 20 13 19 7 42
13 50 13 8 0 -1 -6 -20 -13z m2395 -14 c50 -16 83 -29 75 -29 -18 0 -189 56
-175 57 6 0 51 -12 100 -28z m-2548 -32 c-490 -158 -936 -398 -1347 -725 l-45
-36 45 41 c61 57 261 202 395 288 218 138 505 280 754 373 137 51 251 88 271
88 8 0 -25 -13 -73 -29z m2787 -46 c70 -25 125 -48 123 -50 -2 -2 -64 19 -138
46 -74 28 -129 50 -122 51 6 0 68 -21 137 -47z m285 -115 c328 -149 733 -401
911 -568 l45 -42 -54 44 c-269 217 -596 419 -907 558 -76 34 -141 64 -143 66
-14 13 27 -3 148 -58z m-4469 -601 c0 -2 -15 -16 -32 -33 l-33 -29 29 33 c28
30 36 37 36 29z m5460 -32 c13 -14 21 -25 18 -25 -2 0 -15 11 -28 25 -13 14
-21 25 -18 25 2 0 15 -11 28 -25z m-5530 -28 c0 -2 -12 -14 -27 -28 l-28 -24
24 28 c23 25 31 32 31 24z m5596 -29 l29 -33 -32 29 c-31 28 -38 36 -30 36 2
0 16 -15 33 -32z m-5696 -61 c0 -1 -30 -32 -67 -67 l-68 -65 65 68 c60 62 70
72 70 64z m5835 -67 c38 -38 67 -70 64 -70 -2 0 -36 32 -74 70 -38 39 -67 70
-64 70 2 0 36 -31 74 -70z m-5995 -93 c0 -1 -30 -32 -67 -67 l-68 -65 65 68
c60 62 70 72 70 64z m6150 -62 c35 -36 62 -65 59 -65 -2 0 -34 29 -69 65 -35
36 -62 65 -59 65 2 0 34 -29 69 -65z m-6300 -98 c0 -2 -17 -19 -37 -38 l-38
-34 34 38 c33 34 41 42 41 34z m6430 -42 c13 -14 21 -25 18 -25 -2 0 -15 11
-28 25 -13 14 -21 25 -18 25 2 0 15 -11 28 -25z m-6500 -38 c0 -2 -12 -14 -27
-28 l-28 -24 24 28 c23 25 31 32 31 24z m6550 -22 c13 -14 21 -25 18 -25 -2 0
-15 11 -28 25 -13 14 -21 25 -18 25 2 0 15 -11 28 -25z m-6642 -87 c-77 -91
-219 -289 -293 -408 -163 -262 -262 -464 -371 -755 -35 -93 -63 -165 -64 -158
0 6 23 73 51 150 130 355 303 681 522 983 87 121 184 240 194 240 3 0 -15 -24
-39 -52z m6842 -165 c159 -217 313 -478 416 -705 58 -128 174 -430 174 -451
-1 -7 -29 65 -64 158 -164 436 -378 812 -664 1165 l-44 55 46 -50 c26 -27 87
-105 136 -172z m-4881 -1117 c-2 -2 -33 -6 -69 -9 -39 -3 -55 -2 -40 3 25 8
117 13 109 6z m84 -3 c-13 -2 -33 -2 -45 0 -13 2 -3 4 22 4 25 0 35 -2 23 -4z
m2676 3 c-2 -2 -33 -6 -69 -9 -39 -3 -55 -2 -40 3 25 8 117 13 109 6z m84 -3
c-13 -2 -33 -2 -45 0 -13 2 -3 4 22 4 25 0 35 -2 23 -4z m-2700 -10 c-7 -2
-19 -2 -25 0 -7 3 -2 5 12 5 14 0 19 -2 13 -5z m2760 0 c-7 -2 -19 -2 -25 0
-7 3 -2 5 12 5 14 0 19 -2 13 -5z m-3085 -23 c-139 -57 -257 -173 -314 -308
-13 -31 -23 -51 -24 -43 0 7 14 43 32 80 42 89 167 214 258 259 36 17 72 31
80 31 8 0 -6 -9 -32 -19z m430 -12 c94 -46 218 -169 261 -259 17 -37 31 -73
30 -80 0 -8 -9 8 -20 34 -57 142 -161 246 -314 314 -27 12 -44 22 -37 23 7 0
43 -15 80 -32z m2330 12 c-141 -57 -261 -177 -317 -317 -11 -26 -20 -42 -20
-34 -1 7 13 43 31 80 42 89 167 214 258 259 36 17 72 31 80 31 8 0 -6 -9 -32
-19z m431 -12 c92 -45 217 -169 259 -259 18 -37 32 -73 32 -80 -1 -8 -11 12
-24 43 -57 136 -174 251 -314 308 -26 10 -41 19 -33 19 7 1 43 -13 80 -31z
m-5710 -57 c-7 -23 -14 -39 -16 -37 -3 2 1 23 8 45 7 23 14 39 16 37 3 -2 -1
-23 -8 -45z m8228 -135 c-3 -10 -58 165 -56 180 0 5 14 -31 30 -81 16 -49 27
-94 26 -99z m-8258 35 c-7 -23 -14 -39 -16 -37 -3 2 1 23 8 45 7 23 14 39 16
37 3 -2 -1 -23 -8 -45z m-25 -95 c-3 -21 -8 -35 -11 -32 -2 2 -1 20 3 40 3 21
8 35 11 32 2 -2 1 -20 -3 -40z m8304 -21 c0 -16 -2 -15 -8 5 -4 14 -8 34 -8
45 0 16 2 15 8 -5 4 -14 8 -34 8 -45z m-8324 -69 c-3 -21 -8 -35 -11 -32 -2 2
-1 20 3 40 3 21 8 35 11 32 2 -2 1 -20 -3 -40z m8333 22 c-3 -8 -6 -5 -6 6 -1
11 2 17 5 13 3 -3 4 -12 1 -19z m10 -50 c-3 -7 -5 -2 -5 12 0 14 2 19 5 13 2
-7 2 -19 0 -25z m-6090 -10 c-3 -8 -6 -5 -6 6 -1 11 2 17 5 13 3 -3 4 -12 1
-19z m1070 0 c-3 -8 -6 -5 -6 6 -1 11 2 17 5 13 3 -3 4 -12 1 -19z m1690 0
c-3 -8 -6 -5 -6 6 -1 11 2 17 5 13 3 -3 4 -12 1 -19z m1070 0 c-3 -8 -6 -5 -6
6 -1 11 2 17 5 13 3 -3 4 -12 1 -19z m-6100 -40 c-3 -7 -5 -2 -5 12 0 14 2 19
5 13 2 -7 2 -19 0 -25z m8370 10 c-3 -8 -6 -5 -6 6 -1 11 2 17 5 13 3 -3 4
-12 1 -19z m-6110 -35 c-3 -10 -5 -2 -5 17 0 19 2 27 5 18 2 -10 2 -26 0 -35z
m1090 -5 c-2 -13 -4 -5 -4 17 -1 22 1 32 4 23 2 -10 2 -28 0 -40z m1670 5 c-3
-10 -5 -2 -5 17 0 19 2 27 5 18 2 -10 2 -26 0 -35z m1090 0 c-3 -10 -5 -2 -5
17 0 19 2 27 5 18 2 -10 2 -26 0 -35z m2270 -15 c-3 -7 -5 -2 -5 12 0 14 2 19
5 13 2 -7 2 -19 0 -25z m-8390 0 c-3 -8 -6 -5 -6 6 -1 11 2 17 5 13 3 -3 4
-12 1 -19z m-10 -55 c-3 -10 -5 -4 -5 12 0 17 2 24 5 18 2 -7 2 -21 0 -30z
m2270 15 c-3 -8 -6 -5 -6 6 -1 11 2 17 5 13 3 -3 4 -12 1 -19z m2760 -10 c-3
-7 -5 -2 -5 12 0 14 2 19 5 13 2 -7 2 -19 0 -25z m1110 0 c-3 -7 -5 -2 -5 12
0 14 2 19 5 13 2 -7 2 -19 0 -25z m2270 -5 c-3 -10 -5 -4 -5 12 0 17 2 24 5
18 2 -7 2 -21 0 -30z m-5030 5 c-3 -8 -6 -5 -6 6 -1 11 2 17 5 13 3 -3 4 -12
1 -19z m-3390 -75 c-3 -10 -5 -2 -5 17 0 19 2 27 5 18 2 -10 2 -26 0 -35z
m2304 -43 c13 -63 55 -151 95 -201 28 -34 28 -34 2 -11 -54 48 -119 204 -117
277 1 18 3 22 5 10 2 -11 9 -45 15 -75z m1070 9 l-11 -34 5 34 c3 18 6 45 6
60 l2 26 4 -26 c2 -15 -1 -42 -6 -60z m1692 -29 c6 -34 6 -34 -8 5 -7 22 -13
56 -13 75 l1 35 6 -40 c4 -22 10 -56 14 -75z m1068 29 l-11 -34 5 34 c3 18 6
45 6 60 l2 26 4 -26 c2 -15 -1 -42 -6 -60z m2296 34 c-3 -10 -5 -2 -5 17 0 19
2 27 5 18 2 -10 2 -26 0 -35z m-8440 -60 c-3 -10 -5 -4 -5 12 0 17 2 24 5 18
2 -7 2 -21 0 -30z m8450 0 c-3 -10 -5 -4 -5 12 0 17 2 24 5 18 2 -7 2 -21 0
-30z m-5110 -96 c-20 -40 -48 -84 -63 -97 -22 -21 -21 -17 8 21 19 26 46 72
58 103 13 31 26 54 28 51 3 -3 -11 -38 -31 -78z m2760 1 c-19 -40 -50 -86 -68
-103 -32 -30 -32 -29 3 14 20 24 49 72 64 107 16 35 30 61 33 59 2 -3 -12 -37
-32 -77z m-6110 25 c-3 -10 -5 -4 -5 12 0 17 2 24 5 18 2 -7 2 -21 0 -30z
m8470 0 c-3 -10 -5 -4 -5 12 0 17 2 24 5 18 2 -7 2 -21 0 -30z m-3285 -122
l23 -26 -27 23 c-24 22 -88 129 -88 148 0 5 16 -20 35 -55 19 -35 45 -76 57
-90z m-5195 37 c-2 -13 -4 -3 -4 22 0 25 2 35 4 23 2 -13 2 -33 0 -45z m8490
0 c-2 -13 -4 -3 -4 22 0 25 2 35 4 23 2 -13 2 -33 0 -45z m-8500 -100 c-2 -13
-4 -3 -4 22 0 25 2 35 4 23 2 -13 2 -33 0 -45z m8510 0 c-2 -13 -4 -3 -4 22 0
25 2 35 4 23 2 -13 2 -33 0 -45z m-6022 12 c10 -11 16 -20 13 -20 -3 0 -13 9
-23 20 -10 11 -16 20 -13 20 3 0 13 -9 23 -20z m795 17 c0 -2 -10 -12 -22 -23
l-23 -19 19 23 c18 21 26 27 26 19z m1965 -17 c10 -11 16 -20 13 -20 -3 0 -13
9 -23 20 -10 11 -16 20 -13 20 3 0 13 -9 23 -20z m785 6 c0 -2 -8 -10 -17 -17
-16 -13 -17 -12 -4 4 13 16 21 21 21 13z m-3391 -113 c20 -8 54 -22 76 -29 36
-13 37 -14 7 -9 -49 7 -133 50 -178 90 l-39 36 49 -36 c27 -20 65 -43 85 -52z
m557 51 c-45 -39 -129 -82 -178 -90 -18 -3 -3 6 33 19 62 23 150 75 164 97 3
6 9 10 13 10 4 -1 -11 -16 -32 -36z m2203 -51 c20 -8 54 -22 76 -29 34 -12 35
-14 9 -10 -47 7 -138 54 -181 92 l-38 35 49 -36 c27 -20 65 -43 85 -52z m557
51 c-45 -39 -129 -82 -178 -90 -18 -3 -3 6 33 19 62 23 150 75 164 97 3 6 9
10 13 10 4 -1 -11 -16 -32 -36z m-5969 -56 c-2 -13 -4 -3 -4 22 0 25 2 35 4
23 2 -13 2 -33 0 -45z m8530 0 c-2 -13 -4 -3 -4 22 0 25 2 35 4 23 2 -13 2
-33 0 -45z m-5724 -45 c-7 -2 -19 -2 -25 0 -7 3 -2 5 12 5 14 0 19 -2 13 -5z
m180 0 c-7 -2 -19 -2 -25 0 -7 3 -2 5 12 5 14 0 19 -2 13 -5z m2590 0 c-7 -2
-21 -2 -30 0 -10 3 -4 5 12 5 17 0 24 -2 18 -5z m170 0 c-7 -2 -19 -2 -25 0
-7 3 -2 5 12 5 14 0 19 -2 13 -5z m-2840 -10 c-13 -2 -35 -2 -50 0 -16 2 -5 4
22 4 28 0 40 -2 28 -4z m2770 0 c-13 -2 -35 -2 -50 0 -16 2 -5 4 22 4 28 0 40
-2 28 -4z m-5686 -375 c-1 -68 -3 -13 -3 122 0 135 2 190 3 123 2 -68 2 -178
0 -245z m8550 -5 c-1 -65 -3 -14 -3 112 0 127 2 180 3 118 2 -62 2 -165 0
-230z m-8540 -255 c-2 -13 -4 -3 -4 22 0 25 2 35 4 23 2 -13 2 -33 0 -45z
m8530 -5 c-2 -16 -4 -5 -4 22 0 28 2 40 4 28 2 -13 2 -35 0 -50z m-8520 -100
c-2 -16 -4 -5 -4 22 0 28 2 40 4 28 2 -13 2 -35 0 -50z m8510 -5 c-2 -13 -4
-3 -4 22 0 25 2 35 4 23 2 -13 2 -33 0 -45z m-8500 -100 c-2 -13 -4 -3 -4 22
0 25 2 35 4 23 2 -13 2 -33 0 -45z m8490 0 c-2 -13 -4 -3 -4 22 0 25 2 35 4
23 2 -13 2 -33 0 -45z m-8480 -75 c-3 -10 -5 -2 -5 17 0 19 2 27 5 18 2 -10 2
-26 0 -35z m8470 0 c-3 -10 -5 -2 -5 17 0 19 2 27 5 18 2 -10 2 -26 0 -35z
m-8460 -60 c-3 -10 -5 -4 -5 12 0 17 2 24 5 18 2 -7 2 -21 0 -30z m8450 0 c-3
-10 -5 -4 -5 12 0 17 2 24 5 18 2 -7 2 -21 0 -30z m-8440 -60 c-3 -10 -5 -4
-5 12 0 17 2 24 5 18 2 -7 2 -21 0 -30z m8430 0 c-3 -10 -5 -4 -5 12 0 17 2
24 5 18 2 -7 2 -21 0 -30z m-8420 -70 c-3 -10 -5 -2 -5 17 0 19 2 27 5 18 2
-10 2 -26 0 -35z m8410 0 c-3 -10 -5 -2 -5 17 0 19 2 27 5 18 2 -10 2 -26 0
-35z m-8389 -88 c0 -16 -2 -15 -8 5 -4 14 -8 34 -8 45 0 16 2 15 8 -5 4 -14 8
-34 8 -45z m8379 43 c-3 -8 -6 -5 -6 6 -1 11 2 17 5 13 3 -3 4 -12 1 -19z
m-10 -50 c-3 -7 -5 -2 -5 12 0 14 2 19 5 13 2 -7 2 -19 0 -25z m-8349 -83 c0
-16 -2 -15 -8 5 -4 14 -8 34 -8 45 0 16 2 15 8 -5 4 -14 8 -34 8 -45z m8339
43 c-3 -8 -6 -5 -6 6 -1 11 2 17 5 13 3 -3 4 -12 1 -19z m-10 -50 c-3 -7 -5
-2 -5 12 0 14 2 19 5 13 2 -7 2 -19 0 -25z m-8309 -83 c0 -16 -2 -15 -8 5 -4
14 -8 34 -8 45 0 16 2 15 8 -5 4 -14 8 -34 8 -45z m8296 21 c-3 -21 -8 -35
-11 -32 -2 2 -1 20 3 40 3 21 8 35 11 32 2 -2 1 -20 -3 -40z m-6346 -23 c-16
-2 -40 -2 -55 0 -16 2 -3 4 27 4 30 0 43 -2 28 -4z m4435 0 c-13 -2 -35 -2
-50 0 -16 2 -5 4 22 4 28 0 40 -2 28 -4z m-4572 -29 c-33 -17 -67 -45 -92 -76
-21 -27 -39 -47 -39 -43 0 33 131 145 169 145 8 0 -9 -12 -38 -26z m340 -19
c85 -25 138 -43 119 -40 -42 6 -300 83 -284 84 7 1 81 -19 165 -44z m4146 39
c-3 -3 -12 -4 -19 -1 -8 3 -5 6 6 6 11 1 17 -2 13 -5z m153 -4 c18 -12 2 -12
-25 0 -13 6 -15 9 -5 9 8 0 22 -4 30 -9z m-205 -10 c-11 -5 -27 -9 -35 -9 -9
0 -8 4 5 9 11 5 27 9 35 9 9 0 8 -4 -5 -9z m-6187 -180 c0 -8 -13 26 -29 75
-16 50 -28 95 -28 100 1 14 57 -157 57 -175z m6448 158 l19 -21 -27 18 c-29
18 -34 25 -20 25 5 0 17 -10 28 -22z m1763 -27 c-7 -23 -14 -39 -16 -37 -3 2
1 23 8 45 7 23 14 39 16 37 3 -2 -1 -23 -8 -45z m-2094 29 c-11 -5 -27 -9 -35
-9 -9 0 -8 4 5 9 11 5 27 9 35 9 9 0 8 -4 -5 -9z m-105 -30 c-30 -11 -64 -19
-75 -19 -22 1 91 37 115 37 8 0 -10 -8 -40 -18z m-3733 -26 c-3 -3 -12 -4 -19
-1 -8 3 -5 6 6 6 11 1 17 -2 13 -5z m3630 0 c-3 -3 -12 -4 -19 -1 -8 3 -5 6 6
6 11 1 17 -2 13 -5z m634 -55 c10 -21 19 -46 19 -56 -1 -10 -7 0 -15 21 -8 22
-24 53 -36 70 -16 21 -17 27 -5 17 10 -8 26 -32 37 -52z m-4218 44 c-7 -2 -19
-2 -25 0 -7 3 -2 5 12 5 14 0 19 -2 13 -5z m3540 0 c-7 -2 -19 -2 -25 0 -7 3
-2 5 12 5 14 0 19 -2 13 -5z m-3496 -9 c-3 -3 -12 -4 -19 -1 -8 3 -5 6 6 6 11
1 17 -2 13 -5z m3450 0 c-3 -3 -12 -4 -19 -1 -8 3 -5 6 6 6 11 1 17 -2 13 -5z
m-3404 -11 c-7 -2 -19 -2 -25 0 -7 3 -2 5 12 5 14 0 19 -2 13 -5z m3360 0 c-7
-2 -19 -2 -25 0 -7 3 -2 5 12 5 14 0 19 -2 13 -5z m2406 -42 c-7 -23 -14 -39
-16 -37 -3 2 1 23 8 45 7 23 14 39 16 37 3 -2 -1 -23 -8 -45z m-5716 32 c-7
-2 -19 -2 -25 0 -7 3 -2 5 12 5 14 0 19 -2 13 -5z m3260 0 c-7 -2 -19 -2 -25
0 -7 3 -2 5 12 5 14 0 19 -2 13 -5z m-3210 -10 c-7 -2 -19 -2 -25 0 -7 3 -2 5
12 5 14 0 19 -2 13 -5z m3160 0 c-7 -2 -19 -2 -25 0 -7 3 -2 5 12 5 14 0 19
-2 13 -5z m-3100 -10 c-7 -2 -21 -2 -30 0 -10 3 -4 5 12 5 17 0 24 -2 18 -5z
m3050 0 c-7 -2 -21 -2 -30 0 -10 3 -4 5 12 5 17 0 24 -2 18 -5z m-4012 -34
c-5 -13 -10 -19 -10 -12 -1 15 10 45 15 40 3 -2 0 -15 -5 -28z m1012 24 c-7
-2 -19 -2 -25 0 -7 3 -2 5 12 5 14 0 19 -2 13 -5z m2940 0 c-7 -2 -19 -2 -25
0 -7 3 -2 5 12 5 14 0 19 -2 13 -5z m-2870 -10 c-7 -2 -21 -2 -30 0 -10 3 -4
5 12 5 17 0 24 -2 18 -5z m2815 0 c-10 -2 -26 -2 -35 0 -10 3 -2 5 17 5 19 0
27 -2 18 -5z m-2740 -10 c-10 -2 -28 -2 -40 0 -13 2 -5 4 17 4 22 1 32 -1 23
-4z m2660 0 c-10 -2 -26 -2 -35 0 -10 3 -2 5 17 5 19 0 27 -2 18 -5z m-2590
-10 c-10 -2 -26 -2 -35 0 -10 3 -2 5 17 5 19 0 27 -2 18 -5z m2520 0 c-10 -2
-26 -2 -35 0 -10 3 -2 5 17 5 19 0 27 -2 18 -5z m-2440 -10 c-10 -2 -26 -2
-35 0 -10 3 -2 5 17 5 19 0 27 -2 18 -5z m2365 0 c-13 -2 -33 -2 -45 0 -13 2
-3 4 22 4 25 0 35 -2 23 -4z m-2270 -10 c-13 -2 -33 -2 -45 0 -13 2 -3 4 22 4
25 0 35 -2 23 -4z m2175 0 c-10 -2 -28 -2 -40 0 -13 2 -5 4 17 4 22 1 32 -1
23 -4z m-5003 -463 c135 -293 347 -633 544 -870 25 -30 35 -46 22 -35 -38 32
-241 309 -323 440 -93 149 -188 325 -257 475 -55 120 -171 422 -171 443 0 7
31 -69 69 -168 37 -99 90 -227 116 -285z m1412 368 c-2 -18 -4 -4 -4 32 0 36
2 50 4 33 2 -18 2 -48 0 -65z m1516 85 c-13 -2 -33 -2 -45 0 -13 2 -3 4 22 4
25 0 35 -2 23 -4z m1980 0 c-13 -2 -33 -2 -45 0 -13 2 -3 4 22 4 25 0 35 -2
23 -4z m3016 -149 c-42 -114 -80 -204 -67 -158 13 46 114 311 116 305 1 -4
-20 -70 -49 -147z m-4871 139 c-15 -2 -42 -2 -60 0 -18 2 -6 4 27 4 33 0 48
-2 33 -4z m1750 0 c-15 -2 -42 -2 -60 0 -18 2 -6 4 27 4 33 0 48 -2 33 -4z
m1579 -75 c-2 -18 -4 -6 -4 27 0 33 2 48 4 33 2 -15 2 -42 0 -60z m-3189 65
c-15 -2 -42 -2 -60 0 -18 2 -6 4 27 4 33 0 48 -2 33 -4z m1470 0 c-15 -2 -42
-2 -60 0 -18 2 -6 4 27 4 33 0 48 -2 33 -4z m-1285 -10 c-24 -2 -62 -2 -85 0
-24 2 -5 4 42 4 47 0 66 -2 43 -4z m1120 0 c-23 -2 -64 -2 -90 0 -26 2 -7 3
42 3 50 0 71 -1 48 -3z m-770 -10 c-46 -2 -120 -2 -165 0 -46 1 -9 3 82 3 91
0 128 -2 83 -3z m500 0 c-46 -2 -120 -2 -165 0 -46 1 -9 3 82 3 91 0 128 -2
83 -3z m-2806 -105 c-3 -8 -6 -5 -6 6 -1 11 2 17 5 13 3 -3 4 -12 1 -19z
m4950 0 c-3 -8 -6 -5 -6 6 -1 11 2 17 5 13 3 -3 4 -12 1 -19z m-4940 -40 c-3
-8 -6 -5 -6 6 -1 11 2 17 5 13 3 -3 4 -12 1 -19z m4930 0 c-3 -8 -6 -5 -6 6
-1 11 2 17 5 13 3 -3 4 -12 1 -19z m-4831 -258 c70 -149 161 -274 313 -435
l86 -90 -83 80 c-127 122 -240 273 -313 417 -37 73 -99 236 -99 258 1 8 14
-23 31 -70 16 -47 45 -119 65 -160z m4814 193 c-11 -17 -11 -17 -6 0 3 10 7
26 7 35 1 15 2 15 6 0 2 -10 -1 -25 -7 -35z m-33 -94 c-72 -192 -203 -385
-369 -544 l-83 -80 81 85 c187 196 296 361 364 548 13 34 25 61 27 59 2 -3 -7
-33 -20 -68z m1491 -100 c-65 -143 -161 -323 -246 -459 -84 -134 -248 -360
-308 -425 l-46 -50 44 55 c216 267 418 593 553 893 26 59 50 105 52 104 2 -2
-20 -55 -49 -118z m-5606 -717 c118 -78 321 -191 456 -253 51 -23 91 -44 89
-46 -6 -6 -226 101 -348 170 -173 96 -393 249 -444 307 -11 13 17 -7 62 -43
46 -37 129 -97 185 -135z m3642 177 c-28 -31 -196 -157 -289 -215 -158 -100
-490 -272 -502 -261 -2 2 38 23 89 46 224 103 509 276 648 394 70 60 84 69 54
36z m-5224 -424 c13 -14 21 -25 18 -25 -2 0 -15 11 -28 25 -13 14 -21 25 -18
25 2 0 15 -11 28 -25z m6590 22 c0 -2 -10 -12 -22 -23 l-23 -19 19 23 c18 21
26 27 26 19z m-40 -50 c0 -2 -17 -19 -37 -38 l-38 -34 34 38 c33 34 41 42 41
34z m-6500 -32 c13 -14 21 -25 18 -25 -2 0 -15 11 -28 25 -13 14 -21 25 -18
25 2 0 15 -11 28 -25z m2203 -35 c48 -18 86 -35 84 -37 -5 -4 -189 65 -197 74
-6 7 0 6 113 -37z m2127 19 c-58 -26 -305 -109 -322 -109 -7 1 52 23 132 50
80 26 161 55 180 64 19 8 40 15 45 15 6 0 -10 -9 -35 -20z m-4200 -126 l75
-78 -77 75 c-72 69 -83 80 -75 80 1 0 36 -35 77 -77z m6280 74 c0 -1 -30 -32
-67 -67 l-68 -65 65 68 c60 62 70 72 70 64z m-4050 -22 c19 -7 28 -13 20 -13
-8 0 -31 6 -50 13 -19 7 -28 13 -20 13 8 0 31 -6 50 -13z m85 -25 c13 -5 14
-9 5 -9 -8 0 -24 4 -35 9 -13 5 -14 9 -5 9 8 0 24 -4 35 -9z m82 -26 c-3 -3
-12 -4 -19 -1 -8 3 -5 6 6 6 11 1 17 -2 13 -5z m1430 0 c-3 -3 -12 -4 -19 -1
-8 3 -5 6 6 6 11 1 17 -2 13 -5z m-1384 -11 c-7 -2 -19 -2 -25 0 -7 3 -2 5 12
5 14 0 19 -2 13 -5z m1340 0 c-7 -2 -19 -2 -25 0 -7 3 -2 5 12 5 14 0 19 -2
13 -5z m-1290 -10 c-7 -2 -19 -2 -25 0 -7 3 -2 5 12 5 14 0 19 -2 13 -5z
m1244 1 c-3 -3 -12 -4 -19 -1 -8 3 -5 6 6 6 11 1 17 -2 13 -5z m-1200 -10 c-3
-3 -12 -4 -19 -1 -8 3 -5 6 6 6 11 1 17 -2 13 -5z m1156 -1 c-7 -2 -19 -2 -25
0 -7 3 -2 5 12 5 14 0 19 -2 13 -5z m-1110 -10 c-7 -2 -19 -2 -25 0 -7 3 -2 5
12 5 14 0 19 -2 13 -5z m1060 0 c-7 -2 -19 -2 -25 0 -7 3 -2 5 12 5 14 0 19
-2 13 -5z m-1000 -10 c-7 -2 -21 -2 -30 0 -10 3 -4 5 12 5 17 0 24 -2 18 -5z
m950 0 c-7 -2 -19 -2 -25 0 -7 3 -2 5 12 5 14 0 19 -2 13 -5z m-875 -10 c-10
-2 -28 -2 -40 0 -13 2 -5 4 17 4 22 1 32 -1 23 -4z m810 0 c-10 -2 -28 -2 -40
0 -13 2 -5 4 17 4 22 1 32 -1 23 -4z m-730 -10 c-10 -2 -26 -2 -35 0 -10 3 -2
5 17 5 19 0 27 -2 18 -5z m640 0 c-10 -2 -26 -2 -35 0 -10 3 -2 5 17 5 19 0
27 -2 18 -5z m-511 -10 c-20 -2 -52 -2 -70 0 -17 2 0 4 38 4 39 0 53 -2 32 -4z
m416 0 c-18 -2 -48 -2 -65 0 -18 2 -4 4 32 4 36 0 50 -2 33 -4z m-195 -10
c-27 -2 -69 -2 -95 0 -27 2 -5 3 47 3 52 0 74 -1 48 -3z m-2983 -73 c38 -38
67 -70 64 -70 -2 0 -36 32 -74 70 -38 39 -67 70 -64 70 2 0 36 -31 74 -70z
m5945 67 c0 -1 -33 -34 -72 -72 l-73 -70 70 73 c64 67 75 77 75 69z m-5814
-189 l29 -33 -32 29 c-18 17 -33 31 -33 33 0 8 8 1 36 -29z m5634 19 c0 -2
-12 -14 -27 -28 l-28 -24 24 28 c23 25 31 32 31 24z m-5570 -72 c13 -14 21
-25 18 -25 -2 0 -15 11 -28 25 -13 14 -21 25 -18 25 2 0 15 -11 28 -25z m5510
22 c0 -2 -12 -14 -27 -28 l-28 -24 24 28 c23 25 31 32 31 24z m-5259 -219
c292 -216 606 -386 969 -524 91 -35 160 -63 154 -64 -20 0 -261 92 -394 152
-322 146 -726 397 -905 564 l-50 46 55 -44 c30 -25 107 -83 171 -130z m5154
126 c-130 -117 -595 -429 -595 -399 0 2 15 12 33 21 118 61 455 294 567 392
19 17 37 31 40 31 3 0 -17 -20 -45 -45z m-605 -408 c0 -8 -153 -87 -275 -143
-124 -56 -399 -163 -419 -163 -6 1 63 29 154 64 176 67 338 140 460 205 80 43
80 43 80 37z m-3320 -330 c41 -13 71 -24 65 -25 -5 0 -44 10 -85 23 -41 13
-70 24 -65 25 6 0 44 -10 85 -23z m2609 20 c-8 -8 -221 -67 -225 -63 -3 2 42
18 98 34 97 29 137 38 127 29z m-2484 -56 c13 -5 14 -9 5 -9 -8 0 -24 4 -35 9
-13 5 -14 9 -5 9 8 0 24 -4 35 -9z m85 -20 c20 -6 21 -8 5 -8 -11 0 -31 4 -45
8 -20 6 -21 8 -5 8 11 0 31 -4 45 -8z m2115 -6 c-27 -7 -57 -13 -65 -13 -21 1
70 27 95 27 11 0 -2 -6 -30 -14z m-2058 -10 c-3 -3 -12 -4 -19 -1 -8 3 -5 6 6
6 11 1 17 -2 13 -5z m40 -10 c-3 -3 -12 -4 -19 -1 -8 3 -5 6 6 6 11 1 17 -2
13 -5z m1930 0 c-3 -3 -12 -4 -19 -1 -8 3 -5 6 6 6 11 1 17 -2 13 -5z m-1884
-11 c-7 -2 -19 -2 -25 0 -7 3 -2 5 12 5 14 0 19 -2 13 -5z m1840 0 c-7 -2 -19
-2 -25 0 -7 3 -2 5 12 5 14 0 19 -2 13 -5z m-1796 -9 c-3 -3 -12 -4 -19 -1 -8
3 -5 6 6 6 11 1 17 -2 13 -5z m1750 0 c-3 -3 -12 -4 -19 -1 -8 3 -5 6 6 6 11
1 17 -2 13 -5z m-1689 -11 c-10 -2 -26 -2 -35 0 -10 3 -2 5 17 5 19 0 27 -2
18 -5z m1640 0 c-10 -2 -26 -2 -35 0 -10 3 -2 5 17 5 19 0 27 -2 18 -5z
m-1575 -10 c-7 -2 -21 -2 -30 0 -10 3 -4 5 12 5 17 0 24 -2 18 -5z m1510 0
c-7 -2 -21 -2 -30 0 -10 3 -4 5 12 5 17 0 24 -2 18 -5z m-1450 -10 c-7 -2 -21
-2 -30 0 -10 3 -4 5 12 5 17 0 24 -2 18 -5z m1385 0 c-10 -2 -26 -2 -35 0 -10
3 -2 5 17 5 19 0 27 -2 18 -5z m-1315 -10 c-7 -2 -21 -2 -30 0 -10 3 -4 5 12
5 17 0 24 -2 18 -5z m1250 0 c-7 -2 -21 -2 -30 0 -10 3 -4 5 12 5 17 0 24 -2
18 -5z m-1170 -10 c-13 -2 -33 -2 -45 0 -13 2 -3 4 22 4 25 0 35 -2 23 -4z
m1100 0 c-13 -2 -33 -2 -45 0 -13 2 -3 4 22 4 25 0 35 -2 23 -4z m-990 -10
c-13 -2 -35 -2 -50 0 -16 2 -5 4 22 4 28 0 40 -2 28 -4z m890 0 c-13 -2 -33
-2 -45 0 -13 2 -3 4 22 4 25 0 35 -2 23 -4z m-790 -10 c-13 -2 -33 -2 -45 0
-13 2 -3 4 22 4 25 0 35 -2 23 -4z m690 0 c-13 -2 -35 -2 -50 0 -16 2 -5 4 22
4 28 0 40 -2 28 -4z m-255 -10 c-65 -2 -171 -2 -235 0 -65 1 -12 3 117 3 129
0 182 -2 118 -3z"/>
</g>
</svg>
